<?xml version="1.0" encoding="utf-8"?>
<!-- Generator: Adobe Illustrator 16.0.3, SVG Export Plug-In . SVG Version: 6.00 Build 0)  -->
<!DOCTYPE svg PUBLIC "-//W3C//DTD SVG 1.1//EN" "http://www.w3.org/Graphics/SVG/1.1/DTD/svg11.dtd">
<svg version="1.1"
	 id="Layer_1" xmlns:dc="http://purl.org/dc/elements/1.1/" xmlns:cc="http://creativecommons.org/ns#" xmlns:rdf="http://www.w3.org/1999/02/22-rdf-syntax-ns#" xmlns:svg="http://www.w3.org/2000/svg" xmlns:sodipodi="http://sodipodi.sourceforge.net/DTD/sodipodi-0.dtd" xmlns:inkscape="http://www.inkscape.org/namespaces/inkscape" sodipodi:docname="English_Pokémon_logo.svg" inkscape:version="0.48.4 r9939"
	 xmlns="http://www.w3.org/2000/svg" xmlns:xlink="http://www.w3.org/1999/xlink" x="0px" y="0px" width="269.469px"
	 height="137.074px" viewBox="0 0 269.469 137.074" enable-background="new 0 0 269.469 137.074" xml:space="preserve">
<sodipodi:namedview  inkscape:cy="49.407001" inkscape:cx="134.7345" inkscape:zoom="4.1563223" showgrid="false" guidetolerance="10" gridtolerance="10" pagecolor="#ffffff" borderopacity="1" bordercolor="#666666" objecttolerance="10" id="namedview103" inkscape:current-layer="Layer_1" inkscape:window-maximized="1" inkscape:window-y="-8" inkscape:window-x="-8" inkscape:window-height="706" inkscape:window-width="1280" inkscape:pageshadow="2" inkscape:pageopacity="0">
	</sodipodi:namedview>
<linearGradient id="polygon16_1_" gradientUnits="userSpaceOnUse" x1="633.6409" y1="-964.5056" x2="623.6235" y2="-945.8369" gradientTransform="matrix(1 0 0 -1 -620.3418 -910.9819)">
	<stop  offset="0" style="stop-color:#0070B6"/>
	<stop  offset="1" style="stop-color:#1D2C5E"/>
</linearGradient>
<polygon id="polygon16" fill="url(#polygon16_1_)" points="0,36.557 12.026,56.858 16.827,52.279 3.738,32.76 "/>
<polygon id="polygon18" fill="#0071B9" points="178.558,20.602 178.093,23.278 183.845,21.422 183.128,18.144 "/>
<linearGradient id="polygon25_1_" gradientUnits="userSpaceOnUse" x1="755.8157" y1="-926.3679" x2="768.5309" y2="-912.744" gradientTransform="matrix(1 0 0 -1 -620.3418 -910.9819)">
	<stop  offset="0" style="stop-color:#0070B6"/>
	<stop  offset="1" style="stop-color:#1D2C5E"/>
</linearGradient>
<polygon id="polygon25" fill="url(#polygon25_1_)" points="145.044,2.326 126.536,23.55 131.922,22.001 149.543,0 "/>
<polygon id="polygon27" fill="#1D2C5E" points="244.056,31.345 248.599,28.924 247.301,40.3 "/>
<polygon id="polygon29" fill="#1D2C5E" points="215.82,38.64 219.858,39.468 225.012,36.965 220.539,35.296 "/>
<linearGradient id="polygon36_1_" gradientUnits="userSpaceOnUse" x1="700.343" y1="-949.0818" x2="698.8267" y2="-936.3434" gradientTransform="matrix(1 0 0 -1 -620.3418 -910.9819)">
	<stop  offset="0" style="stop-color:#0070B6"/>
	<stop  offset="1" style="stop-color:#1D2C5E"/>
</linearGradient>
<polygon id="polygon36" fill="url(#polygon36_1_)" points="76.598,26.561 77.244,39.744 82.88,37.468 81.193,24.096 "/>
<linearGradient id="polygon43_1_" gradientUnits="userSpaceOnUse" x1="839.2375" y1="-946.6301" x2="838.632" y2="-935.1314" gradientTransform="matrix(1 0 0 -1 -620.3418 -910.9819)">
	<stop  offset="0" style="stop-color:#125D9E"/>
	<stop  offset="1" style="stop-color:#1D2C5E"/>
</linearGradient>
<polygon id="polygon43" fill="url(#polygon43_1_)" points="220.19,22.627 215.654,25.075 215.82,38.64 220.386,36.3 221.819,29.734 
	"/>
<polygon id="polygon45" fill="#312370" points="219.567,39.505 214.572,83.875 222.557,82.3 224.121,37.112 "/>
<polygon id="polygon47" fill="#21386E" points="229.345,86.002 229.487,92.019 244.815,96.904 249.377,94.486 234.337,82.834 
	219.102,81.496 214.572,83.875 "/>
<polygon id="polygon49" fill="#21386E" points="172.483,75.419 176.25,73.39 178.651,77.826 182.201,75.875 182.908,81.723 
	205.192,85.675 209.645,83.226 178.917,64.503 157.119,68.239 152.867,72.28 "/>
<linearGradient id="polygon56_1_" gradientUnits="userSpaceOnUse" x1="796.802" y1="-930.0579" x2="783.4583" y2="-951.2863" gradientTransform="matrix(1 0 0 -1 -620.3418 -910.9819)">
	<stop  offset="0" style="stop-color:#125D9E"/>
	<stop  offset="1" style="stop-color:#1D2C5E"/>
</linearGradient>
<polygon id="polygon56" fill="url(#polygon56_1_)" points="165.387,20.828 160.926,23.283 152.867,72.28 157.381,69.935 
	165.117,42.424 "/>
<polygon id="polygon58" fill="#1D2C5E" points="129.789,27.395 126.235,29.288 126.534,30.473 134.992,25.1 131.296,21.135 
	126.536,23.55 "/>
<polygon id="polygon60" fill="#21386E" points="139.506,85.272 103.166,67.271 107.728,63.822 144.028,82.83 "/>
<polygon id="polygon62" fill="#1D2C5E" points="106.581,18.277 101.074,28.72 106.893,26.958 111.092,15.83 "/>
<linearGradient id="path69_1_" gradientUnits="userSpaceOnUse" x1="678.7122" y1="-964.1038" x2="687.8104" y2="-981.9971" gradientTransform="matrix(1 0 0 -1 -620.3418 -910.9819)">
	<stop  offset="0" style="stop-color:#105FA1"/>
	<stop  offset="1" style="stop-color:#1D2C5E"/>
</linearGradient>
<path id="path69" fill="url(#path69_1_)" d="M56.633,61.419l-4.646,3.189c0,0,0.986,5.184,2.258,8.79
	c1.277,3.619,4.319,6.525,4.319,6.525c1.954,1.91,4.35,3.301,7.021,4.08c5.139,1.479,10.938,0.516,15.918-2.659
	c1.302-0.824,3.068-2.144,4.155-3.185C80.764,81.13,56.633,61.419,56.633,61.419z"/>
<polygon id="polygon71" fill="#1D2C5E" points="81.496,38.669 85.736,85.445 103.06,82.882 107.695,80.453 86.196,35.865 
	81.773,37.355 77.244,39.744 "/>
<linearGradient id="polygon78_1_" gradientUnits="userSpaceOnUse" x1="644.3821" y1="-957.9988" x2="654.9114" y2="-982.4078" gradientTransform="matrix(1 0 0 -1 -620.3418 -910.9819)">
	<stop  offset="0" style="stop-color:#105FA1"/>
	<stop  offset="1" style="stop-color:#1D2C5E"/>
</linearGradient>
<polygon id="polygon78" fill="url(#polygon78_1_)" points="16.55,54.916 35.906,98.814 54.295,92.882 58.785,89.864 20.617,49.929 
	15.841,52.791 12.026,56.858 "/>
<path id="path80" fill="#1D2C5E" d="M208.381,75.627l0.26,2.155c1.584-0.178,3.248-0.383,4.672-0.89
	c1.66-0.568,5.267-2.175,6.638-3.357C219.436,73.722,210.987,75.912,208.381,75.627"/>
<path id="path82" fill="#1D2C5E" d="M143.322,64.418l0.69,3.471c3.722-0.555,6.917-1.932,10.058-3.819
	c1.972-1.174,4.136-2.945,4.818-3.417C158.406,60.96,143.322,64.418,143.322,64.418z"/>
<g id="g84" transform="translate(-5.451,-1.686)">
	<path id="path86" fill="#FFCB05" d="M46.389,96.338l-1.437-3.193L26.6,52.186l-0.377-0.84l-0.834,0.385l-0.557,0.257l-3.268,1.604
		c-0.481-0.808-1.281-2.162-1.838-3.101L12.34,38.006l-1.932-3.259l3.195-2.025c3.023-1.928,6.438-3.709,10.151-5.295
		c7.396-3.15,14.943-4.816,21.826-4.816c2.264,0,4.455,0.184,6.513,0.541c3.432,0.392,6.604,1.518,9.226,3.264
		c3.905,2.184,6.98,5.572,8.718,9.58c1.426,3.294,1.704,7.151,0.798,11.153L70.303,49.5l1.953-1.416
		c1.316-0.955,2.746-1.771,4.25-2.426c2.6-1.1,5.29-1.66,7.985-1.66c2.551,0,4.963,0.505,7.17,1.498l1.423,0.638l-0.143-1.553
		l-0.619-6.711l-0.101-1.064l-1.036,0.27l-3.108,0.806l-0.545-11.427l22.773-7.276l-0.184,8.881l1.715,0.44l4.974-9.532
		l14.897,13.212l0.621,0.553l0.605-0.569c2.041-1.918,4.46-3.457,7.189-4.574l1.14-0.466l-0.781-0.953l-2.686-3.274l17.103-19.714
		l8.957,13.365l-13.711,7.37l-3.045,1.638l3.457,0.073c6.5,0.137,12.256,2.887,16.205,7.742l1.428,1.761l0.921,1.131l-1.528,1.622
		l-1.02,1.082l-3.426,3.654l-0.637,0.679l0.688,0.622l3.212,2.891l1.241,1.117l0.267-1.647l1.231-7.627l0.315-1.958l0.01,0.011
		l0.324-2l1.839-11.26h16.418h0.771l0.13-0.76l0.32-1.928h14.785l3.582,22.621l0.233,1.465l1.2-0.871
		c1.45-1.054,3.054-1.921,4.766-2.576c2.279-0.859,4.625-1.299,6.967-1.299c2.788,0,5.495,0.645,7.836,1.861
		c0.063,0.045,0.15,0.103,0.271,0.151l1.11,0.445l0.131-1.191l0.269-2.466l0.088-0.808l-0.795-0.177l-2.998-0.67l-0.146-11.792
		l22.856,5.03l1.717,8.485l1.775,0.035l1.771-7.302l19.061,4.635L254.268,95.04l-13.938-4.377l-0.1-5.407l-0.014-0.775l-0.769-0.107
		L225.54,82.41l0.787-7.069l0.187-1.682l-1.505,0.771c-0.713,0.363-1.403,0.668-2.055,0.908c-2.274,0.86-4.604,1.295-6.922,1.295
		c-0.671,0-1.346-0.037-2.001-0.111l-1.188-0.133l0.187,1.181l0.979,6.217l-20.291-3.579l-1.063-9.227l-0.343-2.957l-1.366,2.644
		l-2.336,4.505l-4.302-7.94l-1.293-2.385l-0.408,2.68l-0.937,6.146l-17.784-2.799l1.379-8.436l0.315-1.934l-1.682,1.005
		c-2.91,1.745-6.254,3.058-10.217,4.015c-1.385,0.339-2.832,0.572-4.305,0.694l-0.834,0.07v0.837v15.918l-35.023-17.31l-1.315-0.648
		l0.001,1.467l0.023,14.804L96.57,83.664l-0.658-7.109l-0.178-1.901l-1.365,1.338c-2.069,2.024-4.4,3.595-6.927,4.667
		c-2.585,1.099-5.253,1.654-7.926,1.654c-2.669,0-5.177-0.558-7.455-1.648c-4.22-2.03-7.264-5.713-8.569-10.36
		c-0.622-2.183-0.791-4.488-0.502-6.854l0.309-2.521l-1.838,1.75c-1.296,1.23-2.692,2.405-4.152,3.484l-0.495,0.365l0.156,0.595
		l5.275,20.248l0.932,3.593l-3.532,1.123l-9.932,3.18L46.389,96.338L46.389,96.338z M50.847,41.982
		c-0.512,0-1.041,0.048-1.574,0.144l-0.676,0.13l-0.998,0.192l0.302,0.972l0.195,0.632l2.84,9.293l0.284,0.894l0.422,1.34
		l1.051-0.935l0.696-0.621c2.753-2.474,3.718-4.985,3.138-8.153c-0.366-1.901-1.839-2.849-2.685-3.244
		C52.958,42.198,51.946,41.982,50.847,41.982L50.847,41.982z M126.982,42.287l-1.774,1.728l-4.675,4.543l-1.019,0.989l1.325,0.512
		l5.014,1.936l1.54,0.593l-0.317-1.618c-0.414-2.09-0.522-4.182-0.328-6.217L126.982,42.287L126.982,42.287z M147.398,37.12
		c-1.938,0-3.814,0.834-5.147,2.286c-2.022,2.208-2.415,5.465-0.978,8.103l0.382,0.715l0.612,1.144l0.863-0.967l0.555-0.614
		l6.858-7.83l0.539-0.62l0.865-0.994l-1.234-0.457l-0.769-0.284C149.137,37.285,148.273,37.12,147.398,37.12L147.398,37.12
		L147.398,37.12z"/>
</g>
<path id="path88" fill="#7D7F68" d="M152.438,47.032c-0.065,0.058-0.127,0.132-0.179,0.208c0.069-0.063,0.136-0.118,0.207-0.176
	L152.438,47.032z"/>
<polygon id="polygon90" fill="#7D7F68" points="158.351,41.555 161.776,37.901 160.604,39.145 160.638,38.988 159.602,40.081 
	156.18,43.724 159.386,46.608 159.967,43.016 161.563,44.445 "/>
<polygon id="polygon92" fill="#7D7F68" points="158.351,41.555 161.563,44.445 162.793,36.819 161.776,37.901 "/>
<path id="path94" fill="#7D7F68" d="M115.715,47.522l0.052,0.021L115.715,47.522z"/>
<path id="path96" fill="#C7A008" d="M134.677,50.694c0.274,0.277,0.021,0.078,0.328,0.288l2.095-1.478
	c-0.311-0.22-0.619-0.456-0.901-0.72c-3.04-2.77-2.25-9-0.278-12.41C130.729,40.563,130.999,47.01,134.677,50.694"/>
<path id="path98" fill="#C7A008" d="M159.967,54.182c-3.46,2.861-7.404,4.728-12.615,5.986c-1.139,0.262-2.255,0.451-3.347,0.547
	c-8.271,0.813-15.21-2.984-17.843-9.145c-0.328-0.746-0.581-1.501-0.772-2.307c-1.218-5.188-0.178-9.824,2.385-13.458
	c0.254-0.353,0.521-0.689,0.802-1.032c-0.132,0.112-0.266,0.208-0.374,0.313c-0.985,0.877-1.857,1.838-2.599,2.889
	c-2.565,3.634-3.605,8.272-2.377,13.453c0.188,0.806,0.438,1.571,0.758,2.301c2.635,6.174,9.575,9.97,17.84,9.163
	c1.101-0.106,2.213-0.288,3.353-0.563c5.217-1.259,9.158-3.117,12.618-5.979c0.845-0.695,1.66-1.453,2.451-2.282l-0.073-0.07
	C160.094,54.066,160.035,54.125,159.967,54.182"/>
<polygon id="polygon100" fill="#C7A008" points="101.678,38.499 110.919,25.513 110.544,25.167 101.628,37.691 "/>
<polygon id="polygon102" fill="#C7A008" points="162.793,36.819 161.563,44.445 159.967,43.016 159.386,46.608 156.18,43.724 
	159.602,40.081 160.638,38.988 160.604,39.145 161.776,37.901 "/>
<polygon id="polygon104" fill="#C7A008" points="151.374,15.429 154.61,14.041 148.695,6.45 146.757,9.157 "/>
<path id="path106" fill="#C7A008" d="M61.785,34.235c-14.937-18.195-41.85-8.415-51.522,0.096l0.378,0.653
	c2.225-1.276,4.569-2.43,7.036-3.465c9.608-4.104,18.768-5.308,26.112-4.022c2.596,0.298,5.346,1.068,7.738,2.67
	c3.313,1.855,5.824,4.494,7.292,7.876c2.605,5.99,0.311,13.955-5.824,20.623C60.69,51.605,65.955,44.849,61.785,34.235z"/>
<path id="path108" fill="#C7A008" d="M92.257,55.433c-0.07-0.33-0.14-0.665-0.247-0.988c-0.841-3.025-2.648-5.44-5.017-7.047
	c-3.834-2.604-9.187-3.14-14.521-0.887c-2.806,1.213-5.246,3.079-7.175,5.31c1.482-1.276,3.178-2.339,5.009-3.131
	c5.322-2.259,10.674-1.726,14.521,0.876c2.368,1.608,4.16,4.022,5.02,7.044c0.095,0.324,0.169,0.664,0.243,1.005
	c0.228,1.15,0.334,2.313,0.29,3.504c-0.111,3.482-1.402,6.988-3.549,9.982c-0.347,0.474-0.71,0.916-1.087,1.354
	c1.222-1.055,2.313-2.222,3.245-3.529c2.155-2.975,3.443-6.487,3.558-9.99C92.596,57.766,92.499,56.584,92.257,55.433"/>
<path id="path110" fill="#C7A008" d="M77.55,50.992c-0.021,0.033,2.167-2.168,2.142-2.168c-2.736-0.104-3.894,2.477-3.988,2.68
	C76.265,51.232,76.885,51.055,77.55,50.992"/>
<path id="path112" fill="#C7A008" d="M82.705,54.147c0.11,0.371,0.169,0.74,0.169,1.144c0,0.57-0.127,1.117-0.358,1.621
	c0.438-0.229,3.604-1.764,2.376-5.016C84.958,51.996,82.626,54.137,82.705,54.147"/>
<path id="path114" fill="#C7A008" d="M70.255,55.957c0-1.338,2.291-4.584,3.005-5.667c-3.618,2.3-5.176,5.404-5.176,7.85
	c0,4.188,3.681,7.558,8.082,7.558c2.082,0,5.895-1.101,8.389-5.137c-1.307,0.859-4.629,2.918-6.372,2.918
	C73.783,63.477,70.255,60.169,70.255,55.957"/>
<polygon id="polygon116" fill="#C7A008" points="101.227,59.791 101.284,76.746 103.975,76.9 103.443,57.572 "/>
<polygon id="polygon118" fill="#C7A008" points="85.781,27.511 85.836,29.017 98.589,25.22 99.534,41.46 101.662,38.478 
	101.208,22.181 "/>
<polygon id="polygon120" fill="#C7A008" points="124.332,33.326 112.353,22.332 110.919,25.513 121.462,35.418 "/>
<path id="path122" fill="#C7A008" d="M122.511,53.814l-14.064-4.65l-2.049,2.164l14.012,5.607c1.589,2.994,3.996,5.559,7.028,7.434
	c2.936,1.795,6.289,2.87,9.841,3.211v6.92l2.173,1.084l0.687-10.396L122.511,53.814L122.511,53.814z"/>
<path id="path124" fill="#C7A008" d="M145.095,51.858c3.454-0.833,5.446-2.635,7.161-4.618c-1.287,1.056-7.739,2.462-8.823,2.829
	l-2.125,2.263C142.279,52.418,143.903,52.156,145.095,51.858"/>
<path id="path126" fill="#C7A008" d="M138.813,27.943c-6.369,0.834-9.688,6.181-10.236,6.832c2.352-1.987,5.3-3.462,8.619-4.248
	c7.882-1.906,14.83,0.497,19.125,5.807l2.658-2.25C154.725,28.866,146.692,26.043,138.813,27.943"/>
<path id="path128" fill="#C7A008" d="M160.174,53.998c0.768-0.646,2.133-1.299,2.859-2.06l-8.528-7.62
	c-0.653,0.781-1.245,2.068-2.042,2.745L160.174,53.998L160.174,53.998z"/>
<path id="path130" fill="#C7A008" d="M203.938,74.418c-8.946-7.354-8.412-23.123-4.02-28.126l-3.942-24.715l-8.622,1.113
	l-0.384,2.177h6.524l3.455,22.424c-4.396,5.02-6.521,11.743-5.052,17.899c1.138,4.757,4.06,8.606,8.266,10.834
	c0.423,0.231,0.859,0.434,1.307,0.625l0.056,0.329l2.565,0.404C204.091,77.382,204.358,74.632,203.938,74.418L203.938,74.418z"/>
<polygon id="polygon132" fill="#C7A008" points="169.55,25.214 169.179,27.392 179.013,27.392 181.91,43.273 184.092,41.069 
	181.798,24.304 "/>
<polygon id="polygon134" fill="#C7A008" points="186.385,56.044 183.21,64.246 183.996,66.38 188.537,53.889 "/>
<polygon id="polygon136" fill="#C7A008" points="176.956,50.878 174.77,53.061 172.427,67.875 174.671,68.732 "/>
<path id="path138" fill="#C7A008" d="M221.123,46.146c1.287,0.919,2.385,2.082,3.211,3.465c0.651,1.061,1.145,2.249,1.46,3.553
	c1.071,4.453-0.21,9.27-3.041,13.133c-0.285,0.393-0.6,0.771-0.899,1.144c1.15-0.989,15.118-11.292,1.472-24.824
	c-15.011-4.948-20.692,4.845-21.224,5.466c1.586-1.348,3.416-2.463,5.398-3.221C212.58,42.937,217.578,43.604,221.123,46.146"/>
<path id="path140" fill="#C7A008" d="M213.556,47.122c0.042,0.095,2.155-2.202,2.198-2.202c-2.671,0.11-3.954,1.399-3.822,1.994
	c-0.16,0.231-0.29,0.46-0.392,0.713C212.11,47.344,213.164,47.125,213.556,47.122"/>
<path id="path142" fill="#C7A008" d="M218.578,50.479c0.096,0.357,0.142,0.732,0.134,1.136c-0.024,0.516-0.158,0.989-0.354,1.43
	c0.406-0.183,3.644-1.188,2.407-4.75C220.797,48.396,218.543,50.481,218.578,50.479"/>
<path id="path144" fill="#C7A008" d="M211.487,61.789c3.021,0.129,6.362-1.727,8.759-5.007c-6.148,1.261-12.611-8.977-11.963-9.979
	c-2.323,1.684-4.38,4.932-4.474,7.201C203.649,58.214,207.076,61.613,211.487,61.789"/>
<polygon id="polygon146" fill="#C7A008" points="245.178,88.464 246.619,89.428 264.207,36.643 251.044,33.601 250.879,36.693 
	261.497,39.049 "/>
<polygon id="polygon148" fill="#C7A008" points="224.291,27.943 224.406,30.891 238.401,33.702 243.789,59.255 245.97,57.057 
	240.837,31.241 "/>
<polygon id="polygon150" fill="#C7A008" points="235.061,57.062 231.208,78.854 233.427,79.573 237.252,54.916 "/>
<polygon id="polygon152" fill="#C7A008" points="53.445,86.85 46.899,63.117 44.503,64.793 50.57,87.53 "/>
<path id="path154" fill="#C7A008" d="M51.746,51.162c-1.511,1.603-4.857,4.715-6.765,5.943l-1.157-3.718l-2.536-8.152l-1.612-5.52
	l-1.573,2.02l1.606,5.527l2.536,8.146l1.152,3.729C46.009,57.455,49.807,54.298,51.746,51.162"/>
<path id="path156" fill="#7D7F68" d="M144.498,37.129c-2.066-0.795-4.992-0.556-6.572,1.174c-0.367,0.4-1.081,1.424-1.307,1.881
	c1.528-1.217,4.252-1.479,6.036-0.835L144.498,37.129L144.498,37.129z"/>
<path id="path158" fill="#7D7F68" d="M49.857,44.493c-0.231-1.22-1.427-2.188-2.013-2.458c-1.048-0.506-2.861-0.585-4.185-0.344
	c0.237,0.822,0.511,1.786,0.627,2.181c0.536,0.075,1.419,0.235,1.882,0.446c0.581,0.28,1.597,0.939,1.833,2.168
	c0.315,1.639,0.232,3.171-0.45,4.415C49.424,49.063,50.333,47.064,49.857,44.493"/>
<g id="g160" transform="translate(-5.451,-1.686)">
	<g id="g162">
		<path id="path164" fill="#3C5AA6" d="M58.588,46.145c-0.899-4.823-7.207-7.482-13.461-4.071l1.612,5.521l2.536,8.159l1.156,3.716
			C55.124,56.452,59.84,52.827,58.588,46.145z M52.376,53.563c-0.683-2.229-2.181-7.042-2.181-7.042
			c0.007,0.022-0.295-1.029-0.653-2.233c1.326-0.237,2.6-0.142,3.647,0.362c0.587,0.279,1.616,0.931,1.842,2.164
			C55.549,49.588,54.614,51.568,52.376,53.563z"/>
	</g>
</g>
<g id="g166" transform="translate(-5.451,-1.686)">
	<g id="g168">
		<path id="path170" fill="#3567B0" d="M153.223,38.491c-3.496-3.207-8.93-2.958-12.119,0.534
			c-3.208,3.487-2.956,8.925,0.545,12.118c0.285,0.275,0.594,0.5,0.903,0.722l11.277-12.771
			C153.63,38.886,153.43,38.679,153.223,38.491z M142.575,47.474c-1.104-2.024-0.88-4.596,0.769-6.397
			c1.586-1.729,4.017-2.221,6.088-1.421L142.575,47.474z"/>
	</g>
</g>
<polygon id="polygon172" fill="#1E2D5F" points="162.84,35.403 156.595,41.42 162.528,46.748 "/>
<path id="path174" fill="#3466AF" d="M220.748,48.295c0.095,0.379,0.144,0.754,0.132,1.153c-0.104,2.386-2.347,4.228-5.021,4.103
	c-2.672-0.092-4.771-2.119-4.666-4.5c0.091-2.23,2.078-3.996,4.533-4.109c-0.466-0.105-0.953-0.16-1.461-0.178
	c-4.473-0.193-8.129,2.975-8.283,6.919c-0.172,4.218,3.209,7.656,7.611,7.848c4.479,0.179,8.133-3,8.311-7.198
	C221.956,50.877,221.526,49.482,220.748,48.295"/>
<linearGradient id="path183_1_" gradientUnits="userSpaceOnUse" x1="846.5959" y1="1494.3796" x2="862.5256" y2="1494.3796" gradientTransform="matrix(1 0 0 1 -776.3418 -1438.2959)">
	<stop  offset="0" style="stop-color:#3C5AA6"/>
	<stop  offset="0.9331" style="stop-color:#2B73B9"/>
	<stop  offset="1" style="stop-color:#2A75BB"/>
</linearGradient>
<path id="path183" fill="url(#path183_1_)" d="M85.053,53.112c0,2.396-2.179,4.316-4.848,4.316c-2.677,0-4.848-1.922-4.848-4.316
	c0-2.233,1.91-4.074,4.358-4.288c-0.469-0.085-0.957-0.134-1.461-0.134c-4.472,0-8,3.316-8,7.267c0,4.215,3.529,7.521,7.928,7.521
	c4.477,0,8.001-3.309,8.001-7.521c0-1.459-0.481-2.834-1.311-3.966C84.985,52.332,85.053,52.71,85.053,53.112"/>
<g id="g185" transform="translate(-5.451,-1.686)">
	<g id="g187">
		
			<linearGradient id="path196_1_" gradientUnits="userSpaceOnUse" x1="785.5176" y1="1487.8665" x2="1051.2617" y2="1487.8665" gradientTransform="matrix(1 0 0 1 -776.3418 -1438.2959)">
			<stop  offset="0" style="stop-color:#3C5AA6"/>
			<stop  offset="0.9331" style="stop-color:#2B73B9"/>
			<stop  offset="1" style="stop-color:#2A75BB"/>
		</linearGradient>
		<path id="path196" fill="url(#path196_1_)" d="M254.02,30.598l-1.985,8.186L250.2,29.72l-24.56-5.406l0.172,13.656l3.701,0.83
			l-0.267,2.463c-0.048-0.019-0.078-0.048-0.104-0.069c-4.588-2.421-10.275-2.669-15.629-0.646c-1.796,0.687-3.463,1.59-4.975,2.688
			l-3.705-23.388h-16.333l-0.45,2.689h-17.19l-1.964,12.022l-1.426-1.761c-4.166-5.118-10.205-7.938-16.895-8.077l14.596-7.845
			L154.994,1.687l-18.39,21.189l3.175,3.87c-2.875,1.175-5.388,2.795-7.469,4.752l-15.767-13.989l-5.513,10.566l0.212-10.154
			l-24.651,7.875l0.632,13.244l4.194-1.088l0.62,6.712c-4.792-2.152-10.552-2.1-15.895,0.158c-1.583,0.689-3.059,1.537-4.419,2.523
			c0.925-4.089,0.705-8.12-0.853-11.715c-1.84-4.248-5.078-7.759-9.048-9.974c-2.783-1.854-6.101-3.01-9.571-3.402
			c-8.53-1.491-18.773,0.04-28.854,4.335c-3.706,1.581-7.163,3.375-10.281,5.361L9.177,34.45l2.38,4.019l7.387,12.483
			c0,0,2.26,3.824,2.274,3.822l3.994-1.963l0.557-0.256l18.354,40.961l1.77,3.938l4.099-1.32l9.93-3.181l4.352-1.384l-1.147-4.43
			L57.85,66.895c1.518-1.123,2.934-2.313,4.24-3.561c-0.295,2.419-0.14,4.868,0.526,7.212c1.379,4.908,4.593,8.785,9.053,10.933
			c4.817,2.315,10.694,2.321,16.131,0.016c2.728-1.157,5.152-2.846,7.207-4.854l0.749,8.063l17.39-2.562l-0.026-15.593
			l36.337,17.959V67.119c1.458-0.122,2.946-0.353,4.441-0.72c4.003-0.967,7.428-2.293,10.471-4.115l-1.526,9.339l19.592,3.083
			l1.075-7.05l5.117,9.452l3.128-6.026l1.143,9.896l22.214,3.916l-1.179-7.473c3.041,0.344,6.246-0.064,9.343-1.232
			c0.732-0.271,1.456-0.601,2.149-0.955l-0.885,7.951l14.784,2.086l0.109,6.063l15.416,4.839l20.071-60.495L254.02,30.598
			L254.02,30.598z M167.227,39.588l1.02-1.083l-1.231,7.627l-3.211-2.892L167.227,39.588z M154.209,8.432l5.382,7.312l-15.387,7.628
			l-1.063-1.615L154.209,8.432z M52.32,64.809l6.139,23.556l-9.937,3.174L28.134,46.004c-1.108,0.583-3.157,1.561-5.038,2.483
			l-7.383-12.473c2.936-1.875,6.156-3.537,9.581-4.983c9.612-4.089,18.783-5.309,26.118-4.013c2.595,0.292,5.342,1.058,7.748,2.654
			c3.301,1.859,5.826,4.505,7.282,7.875C69.993,45.754,64.061,57.563,52.32,64.809z M98.001,60.617
			c-0.114,3.507-1.402,7.021-3.558,9.993c-2.052,2.875-4.916,5.248-8.287,6.699c-8.62,3.652-17.24,0-19.543-8.184
			c-2.231-7.913,2.96-17.333,11.312-20.931c5.334-2.253,10.687-1.719,14.521,0.887c2.367,1.605,4.174,4.021,5.017,7.047
			c0.106,0.321,0.176,0.658,0.247,0.988C97.95,58.27,98.047,59.452,98.001,60.617z M144.902,77.27l-36.056-18.032l0.064,18.894
			l-9.327,1.272l-0.65-7.788c2.88-4.938,3.934-10.758,2.431-16.094c-0.825-2.933-2.35-5.479-4.42-7.519l-1.339-15.879l-4.188,1.086
			l-0.185-4.015l14.978-4.461l0.918,15.448l11.034-15.503l10.787,10.273l-15.085,15.892l14.172,5.606
			c1.583,3,3.998,5.549,7.027,7.427c2.93,1.808,6.285,2.877,9.836,3.228L144.902,77.27L144.902,77.27L144.902,77.27z
			 M126.181,51.144l-5.015-1.935l4.675-4.544C125.641,46.751,125.744,48.932,126.181,51.144z M165.418,55.868
			c-3.46,2.861-7.404,4.728-12.615,5.986c-1.139,0.262-2.255,0.451-3.347,0.547c-8.271,0.813-15.21-2.984-17.843-9.145
			c-0.328-0.746-0.581-1.501-0.772-2.307c-1.218-5.188-0.178-9.825,2.385-13.458c0.738-1.061,1.614-2.026,2.599-2.896
			c2.414-2.154,5.496-3.72,9-4.562c7.879-1.9,14.817,0.505,19.071,5.725L148.882,51.74c1.019,0.191,2.637-0.075,3.832-0.361
			c3.576-0.872,5.577-2.771,7.34-4.838l6,5.397l1.818,1.643C167.084,54.396,166.256,55.165,165.418,55.868z M197.271,77.196
			l-3.266-21.636l-4.619,11.936l-6.916-14.917h-0.078l-2.732,17.274l-11.527-2.006l1.621-9.64c0.435-0.409,0.863-0.819,1.284-1.252
			l3.735-3.848l-3.631-3.252L175,26.899h11.63l2.911,15.893l3.262-18.417h8.319l3.452,22.438c-4.394,5.004-6.527,11.731-5.06,17.886
			c1.135,4.771,4.067,8.612,8.271,10.856c0.423,0.213,0.86,0.424,1.313,0.606l0.44,2.908L197.271,77.196L197.271,77.196z
			 M225.996,70.146c-1.271,0.905-2.67,1.675-4.174,2.229c-2.97,1.131-5.922,1.366-8.554,0.843c-1.834-0.362-3.506-1.077-4.961-2.112
			c-2.313-1.674-4.018-4.146-4.769-7.25c-0.876-3.729-0.069-7.711,1.937-11.198c1-1.705,2.283-3.308,3.802-4.688
			c1.692-1.518,3.655-2.761,5.84-3.601c5.083-1.896,10.096-1.242,13.625,1.295c1.298,0.92,2.375,2.091,3.224,3.452
			c0.645,1.074,1.145,2.26,1.447,3.554c1.081,4.478-0.206,9.273-3.031,13.138C229.172,67.454,227.697,68.934,225.996,70.146z
			 M251.951,90.538l-8.524-2.539l-0.743-31.426l-4.287,24.242l-9.299-1.483l0.666-6.98c6.072-5.131,9.291-13.225,7.527-20.56
			c-0.775-3.248-2.445-6.076-4.799-8.227l0.785-8.231l-3.517-0.937l0.235-4.395l16.021,3.22l5.388,25.546l5.524-22.902l12.188,2.692
			L251.951,90.538L251.951,90.538z"/>
	</g>
</g>
<g>
	<g>
		<linearGradient id="SVGID_1_" gradientUnits="userSpaceOnUse" x1="119.3479" y1="93.0496" x2="264.8157" y2="93.0496">
			<stop  offset="0" style="stop-color:#3C5AA6"/>
			<stop  offset="0.9331" style="stop-color:#2B73B9"/>
			<stop  offset="1" style="stop-color:#2A75BB"/>
		</linearGradient>
		<path fill="url(#SVGID_1_)" d="M148.533,121.472c-3.139,0-5.166-1.053-6.457-2.252c-1.32,1.046-3.001,1.654-4.875,1.654h-9.986
			c-3.734,0-5.681-2.03-6.509-3.241c-0.895-1.293-1.358-2.859-1.358-4.626c0-2.306,0.105-5.618,0.321-10.128
			c0.204-4.218,0.307-7.398,0.307-9.456c0-2.197-0.1-6.5-0.295-12.789l-0.003-0.131c-0.02-1.562-0.107-3.961-0.262-7.131
			l-0.026-0.434c-0.104-2.128,0.619-4.078,2.032-5.563c1.065-1.118,3.007-2.451,6.211-2.451c1.038,0,2.622-0.034,4.709-0.101
			c2.301-0.073,3.987-0.108,5.158-0.108c2.168,0,5.186,0.911,7.248,5.25l3.921,8.604c1.206-2.562,2.547-5.417,4.018-8.56
			c2.184-4.883,6.271-5.265,7.478-5.265c0.707,0,1.652,0.031,2.974,0.099c1.306,0.067,1.965,0.081,2.288,0.081
			c0.042,0,0.442-0.003,1.612-0.117c1.28-0.124,2.222-0.182,2.963-0.182c4.428,0,7.896,3.39,7.896,7.718
			c0,2.45-0.085,5.98-0.259,10.792c-0.165,4.578-0.249,8.039-0.249,10.287c0,2.059,0.088,5.252,0.263,9.489
			c0.186,4.482,0.275,7.766,0.275,10.035c0,4.445-3.456,7.927-7.867,7.927h-10.584c-1.771,0-3.371-0.54-4.658-1.476
			c-1.183,1.087-2.444,1.583-3.283,1.807l-0.229,0.062l-0.23,0.045C150.34,121.457,149.706,121.472,148.533,121.472z"/>
		<linearGradient id="SVGID_2_" gradientUnits="userSpaceOnUse" x1="119.3479" y1="92.9001" x2="264.8157" y2="92.9001">
			<stop  offset="0" style="stop-color:#3C5AA6"/>
			<stop  offset="0.9331" style="stop-color:#2B73B9"/>
			<stop  offset="1" style="stop-color:#2A75BB"/>
		</linearGradient>
		<path fill="url(#SVGID_2_)" d="M196.701,121.981c-8.132,0-15.005-2.911-20.428-8.651c-5.233-5.521-7.891-12.383-7.891-20.385
			c0-8.015,2.653-14.892,7.887-20.44c5.416-5.761,12.293-8.686,20.432-8.686c8.093,0,14.955,2.921,20.397,8.682
			c5.261,5.601,7.921,12.474,7.921,20.444c0,8.035-2.644,14.912-7.857,20.44C211.746,119.094,204.867,121.981,196.701,121.981z
			 M196.701,88.971c-0.548,0-1.064,0.073-1.837,0.972c-0.81,0.937-1.149,1.83-1.149,3.002c0,1.729,0.5,2.522,0.936,3.021
			c0.364,0.415,0.807,0.802,2.051,0.802c0.549,0,1.108-0.076,1.911-0.991c0.749-0.86,1.075-1.73,1.075-2.892
			c0-1.661-0.541-2.498-1.012-3.042C198.185,89.275,197.728,88.971,196.701,88.971z"/>
		<linearGradient id="SVGID_3_" gradientUnits="userSpaceOnUse" x1="119.3479" y1="93.0203" x2="264.8157" y2="93.0203">
			<stop  offset="0" style="stop-color:#3C5AA6"/>
			<stop  offset="0.9331" style="stop-color:#2B73B9"/>
			<stop  offset="1" style="stop-color:#2A75BB"/>
		</linearGradient>
		<path fill="url(#SVGID_3_)" d="M240.623,121.233c-0.519,0-1.261-0.01-2.225-0.029h-2.051c-10.348,0-13.128-0.29-14.592-0.604
			c-3.812-0.792-6.401-3.919-6.401-7.772c0-2.282,0.126-5.582,0.386-10.09c0.24-4.177,0.362-7.312,0.362-9.314
			c0-2.205-0.119-6.503-0.354-12.773c-0.059-1.609-0.166-4.005-0.32-7.195l-0.032-0.463c-0.191-3.523,2.176-7.408,7.071-8.014
			c0.718-0.088,1.9-0.172,7.781-0.172c8.678,0,10.67,0.037,11.412,0.064c6.17,0.226,10.824,1.339,14.225,3.401
			c3.668,2.249,8.004,6.761,8.004,15.583c0,2.356-0.649,4.741-1.932,7.09c-0.002,0.005-0.004,0.009-0.007,0.013
			c0.421,0.659,0.805,1.363,1.148,2.111c1.138,2.465,1.717,5.122,1.717,7.889c0,5.428-1.854,10.249-5.364,13.942
			C255.442,119.155,249.276,121.233,240.623,121.233z"/>
	</g>
	<g>
		<path fill="#FFFFFF" d="M148.533,119.472c-4.042,0-5.699-2.106-6.326-3.361c-0.008-0.015-0.015-0.029-0.022-0.044
			c-1.008,1.712-2.823,2.808-4.983,2.808h-9.986c-2.816,0-4.253-1.485-4.859-2.371c-0.664-0.96-1.008-2.144-1.008-3.496
			c0-2.273,0.104-5.555,0.319-10.031c0.205-4.25,0.309-7.464,0.309-9.553c0-2.218-0.1-6.542-0.296-12.851
			c-0.021-1.68-0.11-4.104-0.266-7.298l-0.027-0.455c-0.077-1.555,0.452-2.979,1.484-4.064c1.156-1.214,2.759-1.83,4.763-1.83
			c1.059,0,2.665-0.034,4.773-0.102c2.278-0.072,3.944-0.107,5.094-0.107c3.488,0,4.959,3.093,5.442,4.108l5.694,12.499
			c1.637-3.458,3.598-7.629,5.869-12.482c1.646-3.694,4.501-4.096,5.658-4.096c0.663,0,1.603,0.031,2.871,0.097
			c1.083,0.055,1.887,0.083,2.391,0.083c0.152,0,0.632-0.013,1.806-0.126c1.214-0.118,2.095-0.173,2.77-0.173
			c3.361,0,5.896,2.458,5.896,5.718c0,2.426-0.084,5.933-0.257,10.72c-0.167,4.602-0.251,8.087-0.251,10.359
			c0,2.086,0.089,5.307,0.265,9.572c0.184,4.454,0.273,7.71,0.273,9.952c0,3.379-2.522,5.927-5.867,5.927h-10.584
			c-2.029,0-3.756-0.957-4.8-2.479c-1.118,1.936-2.732,2.631-3.658,2.879l-0.162,0.043l-0.166,0.032
			C150.159,119.454,149.663,119.472,148.533,119.472z"/>
		<path fill="#FFFFFF" d="M196.701,119.981c-7.56,0-13.943-2.7-18.974-8.024c-4.872-5.141-7.345-11.539-7.345-19.012
			c0-7.487,2.471-13.903,7.342-19.068c5.025-5.345,11.411-8.058,18.977-8.058c7.521,0,13.895,2.71,18.943,8.055
			c4.896,5.213,7.375,11.626,7.375,19.071c0,7.508-2.46,13.923-7.313,19.068C210.688,117.304,204.297,119.981,196.701,119.981z
			 M196.701,86.971c-1.346,0-2.349,0.499-3.354,1.668c-1.117,1.293-1.633,2.657-1.633,4.306c0,1.842,0.454,3.22,1.429,4.336
			c0.911,1.039,1.979,1.487,3.558,1.487c1.366,0,2.388-0.5,3.415-1.674c1.068-1.227,1.571-2.568,1.571-4.209
			c0-1.787-0.477-3.17-1.5-4.352C199.24,87.437,198.199,86.971,196.701,86.971z"/>
		<path fill="#FFFFFF" d="M240.623,119.233c-0.513,0-1.248-0.01-2.204-0.029h-2.071c-10.188,0-12.882-0.282-14.173-0.56
			c-2.871-0.596-4.82-2.937-4.82-5.816c0-2.243,0.125-5.506,0.382-9.975c0.243-4.216,0.366-7.388,0.366-9.43
			c0-2.23-0.12-6.553-0.355-12.849c-0.06-1.617-0.167-4.028-0.323-7.241l-0.026-0.36c-0.146-2.688,1.636-5.555,5.315-6.01
			c0.453-0.056,1.284-0.157,7.535-0.157c8.645,0,10.611,0.036,11.338,0.063c5.821,0.213,10.16,1.231,13.262,3.112
			c3.224,1.978,7.041,5.977,7.041,13.873c0,2.018-0.567,4.081-1.688,6.132c-0.196,0.355-0.407,0.709-0.633,1.059
			c0.657,0.852,1.229,1.805,1.713,2.859c1.018,2.202,1.534,4.577,1.534,7.053c0,4.976-1.619,9.202-4.813,12.564
			C254.384,117.36,248.696,119.233,240.623,119.233z"/>
	</g>
	<g>
		<linearGradient id="SVGID_4_" gradientUnits="userSpaceOnUse" x1="126.3479" y1="93.0496" x2="257.8157" y2="93.0496">
			<stop  offset="0" style="stop-color:#3C5AA6"/>
			<stop  offset="0.9331" style="stop-color:#2B73B9"/>
			<stop  offset="1" style="stop-color:#2A75BB"/>
		</linearGradient>
		<path fill="url(#SVGID_4_)" d="M170.928,112.948c0,0.618-0.289,0.927-0.867,0.927h-10.584c-0.579,0-0.867-0.349-0.867-1.047
			c0-2.013,0.074-5.032,0.224-9.06c0.149-4.025,0.225-7.046,0.225-9.06c0-0.577-0.09-0.887-0.27-0.927
			c-0.219,0.12-1.555,3.199-4.006,9.239c-1.436,3.548-2.871,7.086-4.306,10.614c-0.199,0.458-0.448,0.728-0.748,0.808
			c-0.1,0.02-0.498,0.029-1.195,0.029c-1.037,0-1.655-0.199-1.854-0.598c-1.076-2.192-2.491-5.382-4.245-9.568
			c-1.874-4.425-3.279-7.624-4.216-9.598c-0.04-0.1-0.13-0.209-0.27-0.328c-0.14,0.179-0.209,0.468-0.209,0.866
			c0,1.954,0.05,4.885,0.149,8.791c0.1,3.907,0.149,6.837,0.149,8.79c0,0.698-0.279,1.047-0.837,1.047h-9.986
			c-0.399,0-0.644-0.064-0.732-0.194c-0.09-0.13-0.135-0.354-0.135-0.673c0-2.172,0.104-5.437,0.313-9.792
			c0.21-4.355,0.314-7.619,0.314-9.792c0-2.313-0.101-6.647-0.299-13.007c-0.021-1.654-0.11-4.115-0.27-7.385l-0.03-0.509
			c-0.02-0.398,0.398-0.598,1.256-0.598c1.097,0,2.741-0.034,4.934-0.104c2.192-0.069,3.837-0.104,4.934-0.104
			c0.219,0,0.528,0.418,0.927,1.256l8.73,19.165c0.618,1.296,1.137,1.943,1.555,1.943c0.22,0,0.688-0.747,1.405-2.242
			c2.014-4.186,4.994-10.495,8.94-18.927c0.339-0.777,0.707-1.166,1.106-1.166c0.578,0,1.45,0.03,2.616,0.09s2.048,0.09,2.646,0.09
			c0.498,0,1.261-0.05,2.288-0.149c1.026-0.1,1.788-0.149,2.287-0.149c0.598,0,0.896,0.239,0.896,0.718
			c0,2.352-0.085,5.865-0.254,10.539c-0.169,4.675-0.254,8.188-0.254,10.54c0,2.173,0.09,5.432,0.269,9.777
			C170.838,107.547,170.928,110.795,170.928,112.948z"/>
		<linearGradient id="SVGID_5_" gradientUnits="userSpaceOnUse" x1="126.3479" y1="92.9001" x2="257.8157" y2="92.9001">
			<stop  offset="0" style="stop-color:#3C5AA6"/>
			<stop  offset="0.9331" style="stop-color:#2B73B9"/>
			<stop  offset="1" style="stop-color:#2A75BB"/>
		</linearGradient>
		<path fill="url(#SVGID_5_)" d="M218.02,92.945c0,6.219-1.983,11.432-5.95,15.638c-4.047,4.266-9.169,6.398-15.368,6.398
			c-6.159,0-11.272-2.153-15.339-6.458c-3.986-4.206-5.979-9.398-5.979-15.578c0-6.199,1.993-11.411,5.979-15.638
			c4.066-4.325,9.18-6.488,15.339-6.488c6.119,0,11.223,2.163,15.309,6.488C216.017,81.573,218.02,86.786,218.02,92.945z
			 M206.688,92.885c0-2.99-0.907-5.531-2.721-7.625c-1.894-2.192-4.315-3.289-7.266-3.289c-2.811,0-5.192,1.137-7.146,3.409
			c-1.895,2.192-2.841,4.714-2.841,7.564c0,3.05,0.887,5.591,2.661,7.624c1.873,2.134,4.315,3.199,7.325,3.199
			c2.811,0,5.202-1.126,7.176-3.378C205.751,98.237,206.688,95.736,206.688,92.885z"/>
		<linearGradient id="SVGID_6_" gradientUnits="userSpaceOnUse" x1="126.3479" y1="93.0203" x2="257.8157" y2="93.0203">
			<stop  offset="0" style="stop-color:#3C5AA6"/>
			<stop  offset="0.9331" style="stop-color:#2B73B9"/>
			<stop  offset="1" style="stop-color:#2A75BB"/>
		</linearGradient>
		<path fill="url(#SVGID_6_)" d="M257.816,100.958c0,3.668-1.146,6.708-3.438,9.12c-2.611,2.771-7.195,4.155-13.754,4.155
			c-0.498,0-1.216-0.01-2.152-0.029c-0.957,0-1.665,0-2.123,0c-7.355,0-11.73-0.149-13.126-0.448
			c-0.578-0.12-0.867-0.429-0.867-0.928c0-2.132,0.125-5.361,0.374-9.688c0.249-4.325,0.374-7.564,0.374-9.717
			c0-2.313-0.12-6.657-0.359-13.036c-0.06-1.635-0.169-4.086-0.328-7.355l-0.03-0.419c-0.021-0.378,0.294-0.607,0.941-0.688
			c0.647-0.079,2.955-0.119,6.922-0.119c6.358,0,10.076,0.02,11.152,0.06c4.904,0.18,8.521,0.977,10.854,2.392
			c3.089,1.895,4.634,5.094,4.634,9.598c0,1.177-0.358,2.422-1.076,3.737c-0.519,0.938-1.196,1.874-2.033,2.811
			c-0.737,0.818-1.106,1.196-1.106,1.137c0,0.14,0.259,0.358,0.777,0.658c1.396,0.797,2.491,2.063,3.289,3.797
			C257.457,97.55,257.816,99.204,257.816,100.958z M244.959,84.125c0-1.714-0.857-2.851-2.571-3.408
			c-0.957-0.3-2.532-0.449-4.725-0.449c-2.152,0-3.229,0.16-3.229,0.479c0,0.379-0.035,0.952-0.104,1.72
			c-0.07,0.768-0.105,1.341-0.105,1.719c0,1.993,0.17,3.109,0.509,3.349c0.219,0.18,1.484,0.27,3.797,0.27
			C242.817,87.802,244.959,86.576,244.959,84.125z M245.856,100.839c0-1.794-0.747-3.01-2.242-3.647
			c-0.957-0.398-2.512-0.599-4.664-0.599c-2.571,0-3.967,0.095-4.187,0.284c-0.219,0.189-0.328,1.41-0.328,3.663
			c0,2.352,0.129,3.652,0.389,3.901c0.259,0.25,1.693,0.374,4.306,0.374c2.152,0,3.667-0.169,4.544-0.509
			C245.128,103.729,245.856,102.573,245.856,100.839z"/>
	</g>
</g>
</svg>
